<svg width="20" height="20" viewBox="0 0 20 20" fill="none" xmlns="http://www.w3.org/2000/svg">
<path d="M19.7873 7.8994L10.307 0.112601C10.2179 0.0394398 10.1104 0 10 0C9.88966 0 9.78215 0.0394398 9.69309 0.112601L0.212718 7.8994C-0.0188446 8.08963 -0.069157 8.45439 0.100413 8.71416C0.269983 8.97393 0.595178 9.03028 0.826701 8.84015L10 1.30544L19.1733 8.8401C19.2622 8.91336 19.3696 8.95282 19.4799 8.95272C19.6399 8.95272 19.7978 8.87012 19.8996 8.71412C20.0692 8.45439 20.0189 8.08963 19.7873 7.8994Z" fill="black"/>
<path d="M17.2751 8.97217C16.9882 8.97217 16.7555 9.23316 16.7555 9.55511V18.8341H12.5984V13.769C12.5984 12.1617 11.4327 10.8541 9.99995 10.8541C8.56722 10.8541 7.40152 12.1618 7.40152 13.769V18.8341H3.24437V9.55516C3.24437 9.23321 3.01168 8.97221 2.72473 8.97221C2.43777 8.97221 2.20508 9.23321 2.20508 9.55516V19.4171C2.20508 19.7391 2.43777 20.0001 2.72473 20.0001H7.92116C8.19444 20.0001 8.41808 19.7632 8.43878 19.4625C8.44003 19.4489 8.44081 19.434 8.44081 19.4171V13.7691C8.44081 12.8046 9.14022 12.02 9.99995 12.02C10.8597 12.02 11.5591 12.8047 11.5591 13.7691V19.4171C11.5591 19.4339 11.5599 19.4486 11.5611 19.462C11.5816 19.7629 11.8053 20.0001 12.0787 20.0001H17.2752C17.5622 20.0001 17.7948 19.7391 17.7948 19.4171V9.55516C17.7948 9.23316 17.5621 8.97217 17.2751 8.97217Z" fill="black"/>
</svg>
