<svg width="20" height="20" viewBox="0 0 20 20" fill="none" xmlns="http://www.w3.org/2000/svg">
<path d="M10.0245 0C4.49934 0 0 4.49976 0 10.0497C0 15.5493 4.49934 20 10.0245 20C15.5498 20 20 15.5739 20 10.0497C20 4.49976 15.3498 0 10.0245 0ZM10.0245 18.6735C5.27514 18.6735 1.37517 14.7998 1.37517 10.0499C1.37517 5.27577 5.27535 1.32461 10.0245 1.32461C14.7502 1.32461 18.6248 5.3001 18.6248 10.0499C18.6248 14.75 14.7505 18.6735 10.0245 18.6735Z" fill="black"/>
<path d="M13.8753 4.75045C13.2516 4.75045 13.0005 5.02549 12.7259 5.57576L10.0253 11.2004H10.0007L7.27558 5.57555C7.00013 5.02507 6.75069 4.75024 6.12552 4.75024C5.30063 4.75024 5.02539 5.27514 5.02539 5.77485V14.4993C5.02539 14.9756 5.40112 15.2493 5.85028 15.2493C6.25014 15.2493 6.70013 14.9753 6.70013 14.4993V8.00008H6.72552L9.2004 13.0499C9.37557 13.3998 9.60109 13.6008 10.001 13.6008C10.3998 13.6008 10.6259 13.3998 10.8009 13.0499L13.2753 8.00008H13.3007V14.4993C13.3007 14.9756 13.7503 15.2493 14.1504 15.2493C14.6008 15.2493 14.9753 14.9753 14.9753 14.4993V5.77506C14.975 5.27535 14.7008 4.75045 13.8753 4.75045Z" fill="black"/>
</svg>
