<svg width="20" height="18" viewBox="0 0 20 18" fill="none" xmlns="http://www.w3.org/2000/svg">
<path d="M10.0005 12.2976C9.44135 12.2976 8.97266 12.7462 8.97266 13.2814C8.97266 13.8166 9.44135 14.2652 10.0005 14.2652C10.5391 14.2652 11.0283 13.8166 11.0036 13.305C11.0283 12.7423 10.5637 12.2976 10.0005 12.2976Z" fill="black"/>
<path d="M19.5133 15.7842C20.1588 14.7178 20.1629 13.4467 19.5215 12.3842L13.0832 1.71183C12.446 0.637509 11.2948 0 10.0039 0C8.71291 0 7.56174 0.641444 6.92449 1.70789L0.477959 12.3921C-0.163405 13.4664 -0.159294 14.7453 0.490293 15.8118C1.13166 16.8664 2.27871 17.5 3.56144 17.5H16.4216C17.7084 17.5 18.8637 16.8586 19.5133 15.7842ZM18.1155 15.0129C17.7578 15.6032 17.1246 15.9535 16.4175 15.9535H3.55733C2.85841 15.9535 2.22938 15.6111 1.87991 15.0326C1.52634 14.4463 1.52223 13.7458 1.8758 13.1555L8.32233 2.47526C8.67179 1.88891 9.29671 1.54261 10.0039 1.54261C10.7069 1.54261 11.3359 1.89285 11.6854 2.4792L18.1278 13.1594C18.4732 13.734 18.469 14.4266 18.1155 15.0129Z" fill="black"/>
<path d="M9.74465 5.3913C9.25541 5.5251 8.95117 5.9501 8.95117 6.46562C8.97584 6.7765 8.9964 7.09132 9.02106 7.40221C9.09096 8.58671 9.16085 9.74761 9.23074 10.9321C9.25541 11.3335 9.5802 11.6247 9.99956 11.6247C10.4189 11.6247 10.7478 11.3138 10.7684 10.9085C10.7684 10.6645 10.7684 10.4402 10.793 10.1923C10.8383 9.43279 10.8876 8.67329 10.9328 7.91379C10.9575 7.42188 11.0027 6.92998 11.0274 6.43807C11.0274 6.26099 11.0027 6.10358 10.9328 5.94617C10.7231 5.50542 10.2339 5.28111 9.74465 5.3913Z" fill="black"/>
</svg>
