<svg width="24" height="20" viewBox="0 0 24 20" fill="none" xmlns="http://www.w3.org/2000/svg">
<path d="M23.2652 19.5035L18.2589 9.31995C18.2342 9.26887 18.1961 9.2258 18.1486 9.19557C18.1012 9.16535 18.0465 9.14918 17.9905 9.14886H14.0576L15.3472 6.33007C15.6316 5.71906 15.7758 5.07546 15.7758 4.41557C15.7758 1.97967 13.8253 0 11.4343 0C9.34765 0 7.55339 1.51531 7.1649 3.60089V3.62126C7.11684 3.87788 7.09281 4.14672 7.09281 4.41557C7.09281 5.0999 7.241 5.75165 7.53337 6.35044L8.81098 9.14886H5.3346C5.22246 9.14886 5.11832 9.21404 5.06626 9.31995L0.0319137 19.5564C-0.0161468 19.6542 -0.00813675 19.7642 0.0439289 19.8538C0.0999995 19.9434 0.196121 20 0.300252 20H23.0329C23.1971 20 23.3333 19.8615 23.3333 19.6945C23.3346 19.6244 23.3104 19.5564 23.2652 19.5035ZM13.0563 4.28522C13.0563 5.19766 12.3274 5.93943 11.4343 5.93943C10.5372 5.93943 9.80824 5.19807 9.80824 4.28522C9.80824 3.37726 10.5372 2.63549 11.4343 2.63549C12.3274 2.63549 13.0563 3.37685 13.0563 4.28522ZM0.788868 19.3894L1.57786 17.7804H11.3462C11.5144 17.7804 11.6466 17.6419 11.6466 17.4749V15.1449C11.6466 15.0639 11.6149 14.9862 11.5586 14.9289C11.5022 14.8716 11.4258 14.8394 11.3462 14.8394C11.2665 14.8394 11.1901 14.8716 11.1338 14.9289C11.0774 14.9862 11.0458 15.0639 11.0458 15.1449V17.1694H1.87824L5.51883 9.76028H9.09133L11.1579 14.2854C11.206 14.3917 11.3101 14.461 11.4303 14.461C11.5464 14.461 11.6506 14.3917 11.7026 14.2854L13.7772 9.76028H17.8063L22.5363 19.3898L0.788868 19.3894Z" fill="black"/>
</svg>
