<svg width="124" height="45" viewBox="0 0 124 45" fill="none" xmlns="http://www.w3.org/2000/svg">
<path d="M37.751 39.4456L31.1859 35.7951L31.4318 35.6762C31.5367 35.6251 31.5903 35.5062 31.556 35.3943L30.7229 32.5455V28.3923C30.7229 28.3559 30.7133 28.3218 30.6986 28.2903C31.8387 27.0881 32.7716 25.5821 33.4124 23.848C33.556 23.4545 33.8679 23.1582 34.2625 23.0344C35.4416 22.6629 36.2333 21.6622 36.2333 20.5449C36.2333 19.6487 35.7314 18.8205 34.8911 18.3299C34.5403 18.1259 34.3088 17.7348 34.2723 17.288C34.2625 17.1665 34.2456 17.0451 34.2309 16.9236C37.1664 10.9659 34.5646 1.49609 23.6926 1.49609C12.8204 1.49609 10.6475 11.488 13.1883 16.9115C13.1737 17.0378 13.1566 17.1617 13.1469 17.288C13.1079 17.7373 12.8765 18.1259 12.5257 18.3299C11.6852 18.8205 11.1858 19.6487 11.1858 20.5449C11.1858 21.6622 11.9775 22.6629 13.1566 23.0344C13.5512 23.1582 13.8606 23.4569 14.0068 23.848C14.6816 25.6793 15.6877 27.2508 16.913 28.4871V32.5455L15.9995 35.5208C15.9629 35.6373 16.0214 35.7612 16.1335 35.8098L16.3819 35.9165L9.103 39.4383C8.98363 39.4966 8.93492 39.64 8.99095 39.7589C9.03235 39.8439 9.11763 39.895 9.20775 39.895H21.5853C21.6049 39.9531 21.6463 40.0017 21.7046 40.031C21.7389 40.0479 21.7754 40.0552 21.8119 40.0552C21.8996 40.0552 21.9848 40.0066 22.0262 39.9241L22.0409 39.895H26.0019L26.0164 39.9241C26.058 40.0066 26.1433 40.0552 26.231 40.0552C26.2675 40.0552 26.304 40.0479 26.3381 40.031C26.3966 40.0017 26.438 39.9507 26.4574 39.895H37.6341C37.7169 39.895 37.7997 39.8513 37.8436 39.7736C37.9092 39.6593 37.8678 39.5137 37.751 39.448V39.4456Z" fill="white"/>
<path d="M40.3117 8.80165C38.7698 8.65349 35.9416 8.58793 34.263 8.58793C33.961 8.58793 32.911 8.20418 32.7089 7.98072C32.5163 7.76942 34.6163 7.98558 34.5433 7.71112C34.2485 6.58418 33.3544 5.68068 32.324 5.12935C31.2936 4.5756 30.1291 4.33028 28.9769 4.13357C27.1913 3.82995 25.3471 3.64296 23.5201 3.6478C20.1924 3.65752 16.9135 4.30842 14.1194 6.05229C13.8027 6.24901 13.4836 6.47489 13.3203 6.80764C13.1084 7.24237 13.2058 7.78156 12.9915 8.2139C12.6431 8.91338 13.5907 9.09796 12.8088 9.10282C12.2314 9.10768 13.5396 8.68021 12.9622 8.68507L9.18879 8.71907H8.5944C3.84653 8.72151 0 12.5565 0 17.2878V31.0346C0 35.7658 3.84653 39.6009 8.59195 39.6009H8.64555C8.73325 39.6713 8.82095 39.7418 8.91108 39.8097C8.98661 39.7321 9.07673 39.6615 9.18636 39.6009C10.5774 38.8552 11.8855 38.2991 13.3691 37.7574C14.2728 37.4271 14.8818 36.9098 15.6565 36.373C15.8465 36.2418 16.056 36.1617 16.2655 36.0914C16.1121 35.756 15.9805 35.2898 16.0146 35.0883C16.1291 34.413 16.6431 33.8883 17.0231 33.3493C17.0548 33.3055 17.0889 33.2643 17.1255 33.2254C17.1547 31.7146 16.9793 30.1919 16.9598 28.6884C16.9598 28.6009 16.9671 28.5184 16.9842 28.4407C16.1924 27.5834 15.4933 26.6045 14.9427 25.6427C14.4482 24.7829 14.1048 23.8988 13.8758 22.9904C13.7637 22.9079 13.6468 22.8278 13.5274 22.7574C12.8551 22.3615 12.1121 22.1138 11.4714 21.662C10.9135 21.2685 10.8794 20.6176 11.1255 20.1416C11.0913 20.0371 11.0694 19.9254 11.0694 19.7991C11.0694 19.2964 11.5079 18.7135 12.0439 18.6843C12.3654 18.3273 12.6894 18.0115 13.1279 17.8294C13.1352 17.3096 13.1157 16.7899 13.1401 16.2701C13.1449 16.19 13.1571 16.1171 13.1742 16.0467C13.1669 16.0272 13.162 16.0078 13.1547 15.9884C12.7625 14.944 12.3386 14.1061 12.2728 12.9646C12.2266 12.1606 12.9086 11.8133 13.5298 11.9105C13.4787 11.4247 13.7028 10.9074 14.2996 10.7204C14.324 10.7131 14.3508 10.7058 14.3752 10.6961C13.4811 9.52785 14.0171 7.84714 14.6602 6.6862C14.9354 6.19073 15.4032 6.06929 15.8246 6.17857C16.0804 5.69768 16.5457 5.45724 17.1182 5.57138C19.9001 6.13001 22.6308 6.86836 25.3082 7.80342C25.8684 7.99772 26.1168 8.51263 26.0852 8.99352C27.2425 8.89394 28.3995 8.79678 29.559 8.71665C31.011 8.61707 32.6383 8.2236 33.9781 8.92794C35.1182 9.52543 34.3313 11.1211 33.24 10.9705C33.3399 11.1478 33.386 11.3519 33.386 11.5583C34.2143 13.1297 34.1584 14.7764 34.095 16.4887C34.0731 17.0643 34.0633 17.6812 34.3825 18.1597C34.6503 18.5629 35.1035 18.7936 35.4908 19.0802C35.8781 19.3692 36.2412 19.8016 36.1753 20.28C36.1412 20.5375 35.9879 20.7391 35.8855 20.9698C35.7978 21.1689 35.7929 21.4653 35.7076 21.6353C35.4982 22.0481 34.9769 22.2716 34.57 22.444C34.363 22.5315 34.1729 22.551 34.0073 22.5217C33.5055 23.0026 33.2887 23.656 32.9867 24.5108C32.5359 25.7811 31.7662 26.8912 30.8113 27.8433C30.7089 27.9451 30.6041 28.0423 30.4994 28.1395C30.4725 28.1977 30.4433 28.2585 30.4019 28.3169C30.3363 28.4139 30.2777 28.5135 30.2192 28.6131C30.341 29.9198 30.5092 31.2192 30.665 32.5235C30.7576 33.2958 30.8453 34.0681 30.9037 34.8453C30.9306 35.183 30.8478 35.8703 31.0646 36.1375C31.6126 36.8175 33.3617 37.2571 34.1388 37.5947C35.2765 38.0878 36.1363 38.7654 37.1425 39.4964C37.3593 39.6544 37.771 39.7174 37.8636 39.9627C49.3496 39.9627 47.4885 32.555 47.4885 20.7949C47.4885 15.9471 46.2266 9.37728 40.307 8.80651L40.3117 8.80165Z" fill="#ABD7A0"/>
<path d="M33.9008 15.5295C34.0005 16.0517 34.0762 16.5861 34.1225 17.1325C34.1663 17.6426 34.427 18.121 34.8702 18.3809C35.6181 18.8181 36.1102 19.5686 36.1102 20.4211C36.1102 21.48 35.3479 22.3812 34.2808 22.7187C33.8082 22.8692 33.4329 23.2287 33.2624 23.6926C31.6157 28.1592 27.9276 31.268 23.64 31.268C19.3526 31.268 15.6644 28.1568 14.0177 23.6926C13.8472 23.2287 13.4744 22.8668 12.9994 22.7187C11.9324 22.3812 11.1699 21.4824 11.1699 20.4211C11.1699 19.5686 11.6645 18.8181 12.4099 18.3809C12.8532 18.121 13.1163 17.6426 13.1577 17.1325C13.204 16.5885 13.2771 16.0517 13.3794 15.5295" stroke="black" stroke-width="0.4998" stroke-miterlimit="10" stroke-linecap="round"/>
<path d="M16.0454 12.6587C17.8822 11.862 19.2683 11.7964 20.2939 12.0442C21.8188 12.4158 22.859 13.8245 22.859 15.3886V20.9165C22.859 22.4733 24.7031 22.5048 24.7031 20.9165" stroke="black" stroke-width="0.4998" stroke-miterlimit="10" stroke-linecap="round"/>
<path d="M31.5144 12.5105C26.2646 10.2347 24.7007 13.9119 24.7007 13.9119" stroke="black" stroke-width="0.4998" stroke-miterlimit="10" stroke-linecap="round"/>
<path d="M21.0757 23.9375C21.0757 23.9375 23.3265 25.781 26.1695 23.9375" stroke="black" stroke-width="0.4998" stroke-miterlimit="10" stroke-linecap="round"/>
<path d="M28.1091 17.8296C28.4548 17.8296 28.735 17.3697 28.735 16.8023C28.735 16.2349 28.4548 15.7749 28.1091 15.7749C27.7631 15.7749 27.4829 16.2349 27.4829 16.8023C27.4829 17.3697 27.7631 17.8296 28.1091 17.8296Z" fill="black"/>
<path d="M18.7974 17.8296C19.1432 17.8296 19.4235 17.3697 19.4235 16.8023C19.4235 16.2349 19.1432 15.7749 18.7974 15.7749C18.4517 15.7749 18.1714 16.2349 18.1714 16.8023C18.1714 17.3697 18.4517 17.8296 18.7974 17.8296Z" fill="black"/>
<path d="M22.5449 25.8081H24.7034" stroke="black" stroke-width="0.4998" stroke-miterlimit="10" stroke-linecap="round"/>
<path d="M13.16 17.1325C14.4755 15.6364 15.0309 8.7557 17.506 7.31787C21.0797 9.10788 24.9091 10.0041 27.4865 10.2251C31.5181 10.57 33.0357 9.66649 33.0357 9.66649C33.0357 9.66649 32.7971 14.4876 34.1246 17.135C37.4159 11.1165 34.9019 1.07837 23.6252 1.07837C12.3488 1.07837 10.2758 11.7334 13.16 17.1325Z" fill="black"/>
<path d="M12.1514 19.9523C12.1514 19.9523 13.5156 19.5588 13.7689 21.2056" stroke="black" stroke-width="0.4998" stroke-miterlimit="10" stroke-linecap="round"/>
<path d="M35.0712 19.9523C35.0712 19.9523 33.7071 19.5588 33.4536 21.2056" stroke="black" stroke-width="0.4998" stroke-miterlimit="10" stroke-linecap="round"/>
<path d="M18.6559 21.2056C20.3457 21.2056 21.7155 19.8398 21.7155 18.155C21.7155 16.4703 20.3457 15.1045 18.6559 15.1045C16.9661 15.1045 15.5962 16.4703 15.5962 18.155C15.5962 19.8398 16.9661 21.2056 18.6559 21.2056Z" stroke="black" stroke-width="0.4998" stroke-miterlimit="10" stroke-linecap="round"/>
<path d="M28.3166 21.2056C30.0063 21.2056 31.3761 19.8398 31.3761 18.155C31.3761 16.4703 30.0063 15.1045 28.3166 15.1045C26.6266 15.1045 25.2568 16.4703 25.2568 18.155C25.2568 19.8398 26.6266 21.2056 28.3166 21.2056Z" stroke="black" stroke-width="0.4998" stroke-miterlimit="10" stroke-linecap="round"/>
<path d="M21.6958 17.8295C21.6958 17.8295 23.647 16.569 25.2744 17.8295" stroke="black" stroke-width="0.4998" stroke-miterlimit="10" stroke-linecap="round"/>
<path d="M16.9839 28.3872V32.6375L23.9803 34.7361L30.5187 32.6375V28.3872" stroke="black" stroke-width="0.4998" stroke-miterlimit="10" stroke-linecap="round"/>
<path d="M16.9833 32.6377L16.0454 35.693L21.6191 38.0853L23.9797 34.736L26.1989 38.0853L31.3755 35.5642L30.5181 32.6377" stroke="black" stroke-width="0.4998" stroke-linecap="round" stroke-linejoin="round"/>
<path d="M22.1113 37.3882C22.3891 38.1412 23.115 38.678 23.9653 38.678C24.8154 38.678 25.4854 38.1824 25.785 37.4756" stroke="black" stroke-width="0.4998" stroke-linecap="round" stroke-linejoin="round"/>
<path d="M16.7869 36.0137L8.91846 39.8195" stroke="black" stroke-width="0.4998" stroke-linecap="round" stroke-linejoin="round"/>
<path d="M30.9312 36.0137L38.0274 39.9846" stroke="black" stroke-width="0.4998" stroke-linecap="round" stroke-linejoin="round"/>
<path d="M22.5456 38.3284L21.7148 39.9846" stroke="black" stroke-width="0.4998" stroke-linecap="round" stroke-linejoin="round"/>
<path d="M25.3687 38.3284L26.2018 39.9846" stroke="black" stroke-width="0.4998" stroke-linecap="round" stroke-linejoin="round"/>
<path d="M40.1249 37.4246C42.595 37.4246 44.5974 35.4282 44.5974 32.9655C44.5974 30.5025 42.595 28.5061 40.1249 28.5061C37.6548 28.5061 35.6523 30.5025 35.6523 32.9655C35.6523 35.4282 37.6548 37.4246 40.1249 37.4246Z" fill="black"/>
<path d="M37.8574 32.5258C38.6857 33.2593 39.4946 34.4106 39.4946 34.4106C39.4946 34.4106 40.6955 32.9557 42.3738 31.5811" fill="black"/>
<path d="M38.019 32.346C38.7182 32.8755 39.3076 33.4802 39.8825 34.1407L39.1322 34.1116C40.0896 33.1061 41.1079 32.2124 42.2189 31.389C42.4673 31.2068 42.762 31.5615 42.5329 31.7703C41.566 32.6664 40.6525 33.6671 39.8607 34.7091C39.7096 34.9108 39.4222 34.9521 39.2223 34.7989C38.7182 34.1189 38.3017 33.3174 37.6974 32.7006C37.5001 32.494 37.7973 32.1687 38.019 32.346Z" fill="white"/>
<path d="M66.4507 21.2879V10.8005L63.0402 21.2879H60.3192L56.9305 10.8005V21.2879H54.6968V9.15381H58.8087L61.8271 19.1555L64.8454 9.15381H68.8867V21.2879H66.4507Z" fill="black"/>
<path d="M81.4137 19.753C80.2493 20.9334 78.778 21.5235 77.0046 21.5235C75.231 21.5235 73.7597 20.9334 72.5953 19.753C71.4309 18.5726 70.8486 17.0619 70.8486 15.2209C70.8486 13.3799 71.4309 11.8692 72.5953 10.6888C73.7597 9.5084 75.231 8.91821 77.0046 8.91821C78.778 8.91821 80.2493 9.5084 81.4137 10.6888C82.5783 11.8692 83.1604 13.3799 83.1604 15.2209C83.1604 17.0619 82.5783 18.5726 81.4137 19.753ZM74.342 18.1645C75.046 18.9199 75.9351 19.2963 77.0046 19.2963C78.0739 19.2963 78.9607 18.9199 79.6672 18.1645C80.3735 17.4092 80.7243 16.428 80.7243 15.2209C80.7243 14.0138 80.3711 13.0301 79.6672 12.2772C78.9632 11.5243 78.0739 11.1454 77.0046 11.1454C75.9351 11.1454 75.046 11.5219 74.342 12.2772C73.6355 13.0326 73.2847 14.0138 73.2847 15.2209C73.2847 16.428 73.6379 17.4116 74.342 18.1645Z" fill="black"/>
<path d="M87.4437 9.15397V18.835L93.0174 9.15397H96.1087V21.288H93.7798V11.607L88.2061 21.288H85.1147V9.15397H87.4437ZM92.2938 3.08691H94.2428C94.2428 4.21629 93.9064 5.10522 93.2317 5.75369C92.5569 6.40218 91.6678 6.72521 90.5569 6.72521C89.4461 6.72521 88.5716 6.40218 87.9065 5.75369C87.2414 5.10522 86.9077 4.21629 86.9077 3.08691H88.8565C88.8565 3.72568 89.0174 4.20657 89.3389 4.52717C89.6605 4.84776 90.0649 5.00806 90.5569 5.00806C91.0806 5.00806 91.4998 4.8502 91.8163 4.53445C92.133 4.21871 92.2915 3.73538 92.2915 3.08933L92.2938 3.08691Z" fill="black"/>
<path d="M69.6165 28.3313C70.7787 29.5115 71.3583 31.0224 71.3583 32.8632C71.3583 34.7043 70.7787 36.215 69.6165 37.3954C68.4546 38.5758 66.9906 39.1659 65.2244 39.1659C63.6386 39.1659 62.2891 38.6826 61.1708 37.7134C60.0527 36.7469 59.3851 35.4766 59.161 33.9027H57.1172V38.928H54.6934V26.7938H57.1172V31.6999H59.1855C59.4314 30.16 60.1088 28.9165 61.2171 27.9742C62.3256 27.0295 63.6629 26.5581 65.2219 26.5581C66.9882 26.5581 68.4522 27.1484 69.6141 28.3288L69.6165 28.3313ZM62.574 35.8093C63.2707 36.5647 64.155 36.9411 65.2244 36.9411C66.2939 36.9411 67.1805 36.5647 67.8821 35.8093C68.5837 35.0541 68.9345 34.0727 68.9345 32.8657C68.9345 31.6586 68.5837 30.675 67.8821 29.922C67.1805 29.1666 66.2964 28.7902 65.2244 28.7902C64.1526 28.7902 63.2707 29.1666 62.574 29.922C61.8773 30.6775 61.5289 31.6586 61.5289 32.8657C61.5289 34.0727 61.8773 35.0565 62.574 35.8093Z" fill="black"/>
<path d="M79.7374 39.1684C78.9288 39.1684 78.1833 38.9886 77.4962 38.6291C76.8092 38.2698 76.2272 37.762 75.7424 37.1062V44.9999H73.3184V26.7962H75.7424V28.6202C76.2247 27.9644 76.8092 27.4569 77.4962 27.0974C78.1808 26.7379 78.9288 26.5581 79.7374 26.5581C81.4182 26.5581 82.8116 27.1484 83.9201 28.3288C85.0286 29.5091 85.584 31.0199 85.584 32.8608C85.584 34.7019 85.0286 36.2125 83.9201 37.393C82.8116 38.5734 81.4158 39.1635 79.7374 39.1635V39.1684ZM76.7948 35.8093C77.4962 36.5647 78.3805 36.9411 79.4525 36.9411C80.5243 36.9411 81.4062 36.5647 82.1029 35.8093C82.7996 35.0541 83.148 34.0727 83.148 32.8657C83.148 31.6586 82.7996 30.675 82.1029 29.922C81.4062 29.1666 80.5218 28.7902 79.4525 28.7902C78.383 28.7902 77.4962 29.1666 76.7948 29.922C76.0932 30.6775 75.7424 31.6586 75.7424 32.8657C75.7424 34.0727 76.0932 35.0565 76.7948 35.8093Z" fill="black"/>
<path d="M89.8795 26.7966V36.4777L95.4532 26.7966H98.5446V38.9309H96.2158V29.2498L90.6421 38.9309H87.5508V26.7966H89.8795Z" fill="black"/>
<path d="M110.084 31.632C109.965 30.7381 109.582 30.041 108.937 29.5408C108.291 29.0379 107.511 28.7878 106.6 28.7878C105.555 28.7878 104.688 29.1642 104.004 29.9196C103.319 30.675 102.976 31.6562 102.976 32.8632C102.976 34.0703 103.319 35.0541 104.004 35.8069C104.688 36.5623 105.555 36.9387 106.6 36.9387C107.528 36.9387 108.318 36.6668 108.971 36.1202C109.624 35.5763 110.011 34.8135 110.13 33.8324H112.661C112.566 35.4207 111.95 36.7056 110.812 37.6892C109.675 38.6728 108.271 39.1635 106.598 39.1635C104.924 39.1635 103.399 38.5734 102.254 37.393C101.109 36.2125 100.537 34.7019 100.537 32.8608C100.537 31.0199 101.109 29.5091 102.254 28.3288C103.399 27.1484 104.846 26.5581 106.598 26.5581C108.215 26.5581 109.582 27.027 110.705 27.962C111.826 28.8972 112.462 30.1211 112.612 31.6295H110.081L110.084 31.632Z" fill="black"/>
<path d="M113.3 29.0239V26.7966H123.617V29.0239H119.67V38.9309H117.247V29.0239H113.3Z" fill="black"/>
<path d="M35.2904 8.67176C34.0765 4.52031 30.3802 1 23.5946 1C16.809 1 13.3644 4.63774 12.1479 8.77207" stroke="#444648" stroke-width="0.4998" stroke-miterlimit="10"/>
</svg>
