<svg width="77" height="102" viewBox="0 0 77 102" fill="none" xmlns="http://www.w3.org/2000/svg">
<path d="M65.5392 38.5352C65.7969 39.8842 65.9923 41.2646 66.112 42.6763C66.2252 43.9939 66.8986 45.23 68.0436 45.9014C69.9757 47.0308 71.2471 48.9696 71.2471 51.1719C71.2471 53.9075 69.2776 56.2357 66.5208 57.1077C65.3 57.4965 64.3305 58.4252 63.89 59.6235C59.6359 71.1627 50.108 79.1939 39.0315 79.1939C27.9555 79.1939 18.4274 71.1564 14.1731 59.6235C13.7327 58.4252 12.7698 57.4902 11.5426 57.1077C8.78609 56.2357 6.81628 53.9138 6.81628 51.1719C6.81628 48.9696 8.09385 47.0308 10.0196 45.9014C11.165 45.23 11.8446 43.9939 11.9516 42.6763C12.0712 41.2708 12.26 39.8842 12.5243 38.5352" stroke="black" stroke-width="0.4998" stroke-miterlimit="10" stroke-linecap="round"/>
<path d="M19.4128 31.1186C24.1579 29.0606 27.7388 28.8912 30.3882 29.5312C34.3277 30.4912 37.0149 34.1303 37.0149 38.1711V52.4519C37.0149 56.4737 41.7791 56.5551 41.7791 52.4519" stroke="black" stroke-width="0.4998" stroke-miterlimit="10" stroke-linecap="round"/>
<path d="M59.3754 30.7363C45.813 24.8571 41.7728 34.3566 41.7728 34.3566" stroke="black" stroke-width="0.4998" stroke-miterlimit="10" stroke-linecap="round"/>
<path d="M32.4078 60.2568C32.4078 60.2568 38.2226 65.0194 45.567 60.2568" stroke="black" stroke-width="0.4998" stroke-miterlimit="10" stroke-linecap="round"/>
<path d="M50.5774 44.4777C51.4705 44.4777 52.1945 43.2894 52.1945 41.8236C52.1945 40.3577 51.4705 39.1694 50.5774 39.1694C49.6838 39.1694 48.9598 40.3577 48.9598 41.8236C48.9598 43.2894 49.6838 44.4777 50.5774 44.4777Z" fill="black"/>
<path d="M26.5211 44.4777C27.4143 44.4777 28.1384 43.2894 28.1384 41.8236C28.1384 40.3577 27.4143 39.1694 26.5211 39.1694C25.6278 39.1694 24.9037 40.3577 24.9037 41.8236C24.9037 43.2894 25.6278 44.4777 26.5211 44.4777Z" fill="black"/>
<path d="M36.2033 65.0894H41.7794" stroke="black" stroke-width="0.4998" stroke-miterlimit="10" stroke-linecap="round"/>
<path d="M11.9585 42.6765C15.3568 38.8114 16.7917 21.0358 23.1857 17.3213C32.4181 21.9456 42.3111 24.2609 48.9695 24.8319C59.3847 25.7228 63.3053 23.3887 63.3053 23.3887C63.3053 23.3887 62.6888 35.8436 66.1184 42.6827C74.621 27.1346 68.1264 1.20215 38.9943 1.20215C9.86278 1.20215 4.50718 28.7283 11.9585 42.6765Z" fill="black"/>
<path d="M9.35202 49.9613C9.35202 49.9613 12.8763 48.9448 13.5308 53.199" stroke="black" stroke-width="0.4998" stroke-miterlimit="10" stroke-linecap="round"/>
<path d="M68.5627 49.9613C68.5627 49.9613 65.0388 48.9448 64.3839 53.199" stroke="black" stroke-width="0.4998" stroke-miterlimit="10" stroke-linecap="round"/>
<path d="M26.1562 53.199C30.5216 53.199 34.0604 49.6707 34.0604 45.3183C34.0604 40.9659 30.5216 37.4375 26.1562 37.4375C21.7907 37.4375 18.2518 40.9659 18.2518 45.3183C18.2518 49.6707 21.7907 53.199 26.1562 53.199Z" stroke="black" stroke-width="0.4998" stroke-miterlimit="10" stroke-linecap="round"/>
<path d="M51.1136 53.199C55.4789 53.199 59.0176 49.6707 59.0176 45.3183C59.0176 40.9659 55.4789 37.4375 51.1136 37.4375C46.7477 37.4375 43.2091 40.9659 43.2091 45.3183C43.2091 49.6707 46.7477 53.199 51.1136 53.199Z" stroke="black" stroke-width="0.4998" stroke-miterlimit="10" stroke-linecap="round"/>
<path d="M34.0095 44.4771C34.0095 44.4771 39.0503 41.2207 43.2545 44.4771" stroke="black" stroke-width="0.4998" stroke-miterlimit="10" stroke-linecap="round"/>
<path d="M21.837 71.752V82.7322L39.9115 88.1536L56.8028 82.7322V71.752" stroke="black" stroke-width="0.4998" stroke-miterlimit="10" stroke-linecap="round"/>
<path d="M21.8356 82.7329L19.4128 90.6259L33.8119 96.8063L39.9102 88.1537L45.6433 96.8063L59.0165 90.2933L56.8015 82.7329" stroke="black" stroke-width="0.4998" stroke-linecap="round" stroke-linejoin="round"/>
<path d="M35.0836 95.0059C35.8012 96.9511 37.6764 98.338 39.8731 98.338C42.0692 98.338 43.8 97.0578 44.574 95.2317" stroke="black" stroke-width="0.4998" stroke-linecap="round" stroke-linejoin="round"/>
<path d="M21.3273 91.4551L1 101.287" stroke="black" stroke-width="0.4998" stroke-linecap="round" stroke-linejoin="round"/>
<path d="M57.8678 91.4551L76.2001 101.714" stroke="black" stroke-width="0.4998" stroke-linecap="round" stroke-linejoin="round"/>
<path d="M36.2047 97.4346L34.0586 101.713" stroke="black" stroke-width="0.4998" stroke-linecap="round" stroke-linejoin="round"/>
<path d="M43.4977 97.4346L45.6501 101.713" stroke="black" stroke-width="0.4998" stroke-linecap="round" stroke-linejoin="round"/>
<path d="M69.1304 20.8192C65.9943 10.0944 56.4453 1 38.9154 1C21.3855 1 12.4867 10.3977 9.34412 21.0784" stroke="#ABD7A0" stroke-width="0.4998" stroke-miterlimit="10"/>
</svg>
