<svg width="44" height="57" viewBox="0 0 44 57" fill="none" xmlns="http://www.w3.org/2000/svg">
<path d="M42.8121 57.0199L33.2916 51.5947L33.6483 51.4179C33.8003 51.3421 33.8781 51.1653 33.8284 50.9991L32.6202 46.7652V40.5929C32.6202 40.5388 32.6063 40.4881 32.585 40.4412C34.2384 38.6546 35.5912 36.4165 36.5205 33.8393C36.7287 33.2545 37.1809 32.8142 37.7533 32.6301C39.4631 32.078 40.6113 30.5909 40.6113 28.9304C40.6113 27.5984 39.8834 26.3676 38.6648 25.6385C38.1561 25.3353 37.8204 24.7541 37.7675 24.09C37.7533 23.9095 37.7287 23.729 37.7074 23.5485C41.9644 14.6943 38.1913 0.620605 22.4251 0.620605C6.65875 0.620605 3.50758 15.4703 7.19217 23.5305C7.17099 23.7182 7.14624 23.9023 7.13213 24.09C7.07561 24.7577 6.74 25.3353 6.23128 25.6385C5.01251 26.3676 4.28832 27.5984 4.28832 28.9304C4.28832 30.5909 5.43643 32.078 7.14624 32.6301C7.71855 32.8142 8.1672 33.2581 8.37914 33.8393C9.35769 36.5609 10.8167 38.8964 12.5936 40.7338V46.7652L11.2689 51.187C11.2159 51.3602 11.3007 51.5443 11.4632 51.6165L11.8235 51.7751L1.26788 57.009C1.09477 57.0958 1.02414 57.3088 1.10539 57.4856C1.16543 57.6119 1.28909 57.6878 1.41979 57.6878H19.3692C19.3976 57.7742 19.4577 57.8464 19.5422 57.89C19.5919 57.9151 19.6449 57.9259 19.6978 57.9259C19.825 57.9259 19.9486 57.8537 20.0087 57.731L20.03 57.6878H25.7741L25.7951 57.731C25.8554 57.8537 25.979 57.9259 26.1062 57.9259C26.1592 57.9259 26.2121 57.9151 26.2615 57.89C26.3464 57.8464 26.4064 57.7706 26.4345 57.6878H42.6426C42.7627 57.6878 42.8828 57.6228 42.9463 57.5074C43.0416 57.3375 42.9815 57.1212 42.8121 57.0235V57.0199Z" fill="white"/>
<path d="M37.2286 21.4771C37.3732 22.2531 37.4829 23.0472 37.5501 23.8594C37.6137 24.6174 37.9916 25.3284 38.6343 25.7147C39.7189 26.3644 40.4326 27.4798 40.4326 28.7467C40.4326 30.3204 39.327 31.6597 37.7796 32.1614C37.0943 32.385 36.5501 32.9193 36.3028 33.6087C33.9148 40.2469 28.5664 44.867 22.3488 44.867C16.1314 44.867 10.7829 40.2433 8.39482 33.6087C8.14756 32.9193 7.60705 32.3814 6.91817 32.1614C5.37086 31.6597 4.26514 30.324 4.26514 28.7467C4.26514 27.4798 4.98229 26.3644 6.06329 25.7147C6.70623 25.3284 7.08774 24.6174 7.14781 23.8594C7.21492 23.0508 7.32089 22.2531 7.46928 21.4771" stroke="black" stroke-width="0.4998" stroke-miterlimit="10" stroke-linecap="round"/>
<path d="M11.3354 17.2103C13.9991 16.0263 16.0092 15.9289 17.4964 16.297C19.7078 16.8493 21.2162 18.9429 21.2162 21.2674V29.4828C21.2162 31.7964 23.8905 31.8433 23.8905 29.4828" stroke="black" stroke-width="0.4998" stroke-miterlimit="10" stroke-linecap="round"/>
<path d="M33.7682 16.9902C26.1552 13.608 23.8872 19.0729 23.8872 19.0729" stroke="black" stroke-width="0.4998" stroke-miterlimit="10" stroke-linecap="round"/>
<path d="M18.6304 33.9731C18.6304 33.9731 21.8945 36.7129 26.0172 33.9731" stroke="black" stroke-width="0.4998" stroke-miterlimit="10" stroke-linecap="round"/>
<path d="M28.8299 24.8955C29.3312 24.8955 29.7376 24.2119 29.7376 23.3687C29.7376 22.5254 29.3312 21.8418 28.8299 21.8418C28.3283 21.8418 27.9219 22.5254 27.9219 23.3687C27.9219 24.2119 28.3283 24.8955 28.8299 24.8955Z" fill="black"/>
<path d="M15.3263 24.8955C15.8278 24.8955 16.2342 24.2119 16.2342 23.3687C16.2342 22.5254 15.8278 21.8418 15.3263 21.8418C14.8249 21.8418 14.4185 22.5254 14.4185 23.3687C14.4185 24.2119 14.8249 24.8955 15.3263 24.8955Z" fill="black"/>
<path d="M20.7607 36.7522H23.8909" stroke="black" stroke-width="0.4998" stroke-miterlimit="10" stroke-linecap="round"/>
<path d="M7.15149 23.8592C9.05914 21.6357 9.86457 11.4098 13.4538 9.27294C18.6362 11.9332 24.1896 13.2651 27.9272 13.5936C33.7736 14.1061 35.9744 12.7634 35.9744 12.7634C35.9744 12.7634 35.6284 19.9284 37.5535 23.8628C42.3264 14.9183 38.6807 0 22.3277 0C5.97511 0 2.96881 15.8351 7.15149 23.8592Z" fill="black"/>
<path d="M5.68848 28.0499C5.68848 28.0499 7.66678 27.4651 8.03418 29.9125" stroke="black" stroke-width="0.4998" stroke-miterlimit="10" stroke-linecap="round"/>
<path d="M38.9258 28.0499C38.9258 28.0499 36.9477 27.4651 36.5801 29.9125" stroke="black" stroke-width="0.4998" stroke-miterlimit="10" stroke-linecap="round"/>
<path d="M15.1211 29.9122C17.5716 29.9122 19.5581 27.8824 19.5581 25.3786C19.5581 22.8748 17.5716 20.845 15.1211 20.845C12.6706 20.845 10.6841 22.8748 10.6841 25.3786C10.6841 27.8824 12.6706 29.9122 15.1211 29.9122Z" stroke="black" stroke-width="0.4998" stroke-miterlimit="10" stroke-linecap="round"/>
<path d="M29.131 29.9122C31.5814 29.9122 33.5678 27.8824 33.5678 25.3786C33.5678 22.8748 31.5814 20.845 29.131 20.845C26.6802 20.845 24.6938 22.8748 24.6938 25.3786C24.6938 27.8824 26.6802 29.9122 29.131 29.9122Z" stroke="black" stroke-width="0.4998" stroke-miterlimit="10" stroke-linecap="round"/>
<path d="M19.5293 24.8951C19.5293 24.8951 22.3589 23.0218 24.7188 24.8951" stroke="black" stroke-width="0.4998" stroke-miterlimit="10" stroke-linecap="round"/>
<path d="M12.6968 40.5854V46.9021L22.8427 50.0209L32.3244 46.9021V40.5854" stroke="black" stroke-width="0.4998" stroke-miterlimit="10" stroke-linecap="round"/>
<path d="M12.6955 46.9026L11.3354 51.4432L19.4182 54.9987L22.8414 50.021L26.0597 54.9987L33.5666 51.2519L32.3232 46.9026" stroke="black" stroke-width="0.4998" stroke-linecap="round" stroke-linejoin="round"/>
<path d="M20.1323 53.9624C20.5352 55.0815 21.5878 55.8793 22.8209 55.8793C24.0536 55.8793 25.0252 55.1428 25.4597 54.0923" stroke="black" stroke-width="0.4998" stroke-linecap="round" stroke-linejoin="round"/>
<path d="M12.4105 51.9202L1 57.5762" stroke="black" stroke-width="0.4998" stroke-linecap="round" stroke-linejoin="round"/>
<path d="M32.9219 51.9202L43.2125 57.8216" stroke="black" stroke-width="0.4998" stroke-linecap="round" stroke-linejoin="round"/>
<path d="M20.7618 55.3596L19.5571 57.8211" stroke="black" stroke-width="0.4998" stroke-linecap="round" stroke-linejoin="round"/>
<path d="M24.8555 55.3596L26.0637 57.8211" stroke="black" stroke-width="0.4998" stroke-linecap="round" stroke-linejoin="round"/>
</svg>
