<svg width="100" height="16" viewBox="0 0 100 16" fill="none" xmlns="http://www.w3.org/2000/svg">
<path d="M3.58117 16C3.40586 16 3.23179 15.9429 3.08323 15.8309C2.9481 15.7288 2.84471 15.5875 2.78592 15.4246C2.72712 15.2618 2.71551 15.0844 2.75253 14.9147L3.78187 10.1833L0.291039 6.9889C0.165491 6.87458 0.0749236 6.72428 0.0306055 6.55667C-0.0137126 6.38906 -0.00982554 6.21156 0.0417831 6.04624C0.093075 5.88101 0.189712 5.73512 0.319714 5.62667C0.449715 5.51821 0.607363 5.45195 0.773112 5.43611L5.39187 4.99852L7.218 0.539205C7.3526 0.211573 7.65923 0 7.99996 0C8.34069 0 8.64732 0.211573 8.78198 0.538455L10.608 4.99852L15.2261 5.43604C15.5662 5.468 15.8528 5.70814 15.9581 6.04621C16.0635 6.38431 15.9661 6.75512 15.7095 6.98886L12.2187 10.1827L13.248 14.914C13.3235 15.2618 13.194 15.6216 12.9174 15.8302C12.6414 16.0389 12.2734 16.0549 11.9827 15.8726L7.99996 13.3891L4.01722 15.874C3.88256 15.9575 3.73252 16 3.58117 16ZM7.99996 12.3192C8.15134 12.3192 8.30122 12.3616 8.436 12.445L12.1948 14.7909L11.2233 10.3253C11.1893 10.1692 11.1964 10.0064 11.2438 9.85417C11.2912 9.70194 11.3772 9.56594 11.4927 9.46057L14.7888 6.44415L10.428 6.03095C10.2745 6.01661 10.1277 5.95898 10.0032 5.86424C9.87872 5.7695 9.78128 5.64121 9.72131 5.49311L7.99996 1.28493L6.27655 5.49373C6.1552 5.79358 5.88516 5.99958 5.57194 6.02951L1.2105 6.44274L4.50651 9.45916C4.74257 9.67485 4.84583 10.006 4.77589 10.3246L3.80518 14.7901L7.56392 12.445C7.69858 12.3616 7.84861 12.3192 7.99996 12.3192ZM5.35659 5.08474C5.35659 5.08474 5.35659 5.08549 5.35587 5.08614L5.35659 5.08474ZM10.642 5.08268L10.6427 5.08408C10.6427 5.08333 10.6428 5.08333 10.642 5.08268Z" fill="#ABD7A0"/>
<path d="M7.99996 12.3192C8.15134 12.3192 8.30122 12.3616 8.436 12.445L12.1948 14.7909L11.2233 10.3253C11.1893 10.1692 11.1964 10.0064 11.2438 9.85417C11.2912 9.70194 11.3772 9.56594 11.4927 9.46057L14.7888 6.44415L10.428 6.03095C10.2745 6.01661 10.1277 5.95898 10.0032 5.86424C9.87872 5.7695 9.78128 5.64121 9.72131 5.49311L7.99996 1.28493L6.27655 5.49373C6.1552 5.79358 5.88516 5.99958 5.57194 6.02951L1.2105 6.44274L4.50651 9.45916C4.74257 9.67485 4.84583 10.006 4.77589 10.3246L3.80518 14.7901L7.56392 12.445C7.69858 12.3616 7.84861 12.3192 7.99996 12.3192Z" fill="#ABD7A0"/>
<path d="M24.5812 16C24.4059 16 24.2318 15.9429 24.0832 15.8309C23.9481 15.7288 23.8447 15.5875 23.7859 15.4246C23.7271 15.2618 23.7155 15.0844 23.7525 14.9147L24.7819 10.1833L21.291 6.9889C21.1655 6.87458 21.0749 6.72428 21.0306 6.55667C20.9863 6.38906 20.9902 6.21156 21.0418 6.04624C21.0931 5.88101 21.1897 5.73512 21.3197 5.62667C21.4497 5.51821 21.6074 5.45195 21.7731 5.43611L26.3919 4.99852L28.218 0.539205C28.3526 0.211573 28.6592 0 29 0C29.3407 0 29.6473 0.211573 29.782 0.538455L31.608 4.99852L36.2261 5.43604C36.5662 5.468 36.8528 5.70814 36.9581 6.04621C37.0635 6.38431 36.9661 6.75512 36.7095 6.98886L33.2187 10.1827L34.248 14.914C34.3235 15.2618 34.194 15.6216 33.9174 15.8302C33.6414 16.0389 33.2734 16.0549 32.9827 15.8726L29 13.3891L25.0172 15.874C24.8826 15.9575 24.7325 16 24.5812 16ZM29 12.3192C29.1513 12.3192 29.3012 12.3616 29.436 12.445L33.1948 14.7909L32.2233 10.3253C32.1893 10.1692 32.1964 10.0064 32.2438 9.85417C32.2912 9.70194 32.3772 9.56594 32.4927 9.46057L35.7888 6.44415L31.428 6.03095C31.2745 6.01661 31.1277 5.95898 31.0032 5.86424C30.8787 5.7695 30.7813 5.64121 30.7213 5.49311L29 1.28493L27.2765 5.49373C27.1552 5.79358 26.8852 5.99958 26.5719 6.02951L22.2105 6.44274L25.5065 9.45916C25.7426 9.67485 25.8458 10.006 25.7759 10.3246L24.8052 14.7901L28.5639 12.445C28.6986 12.3616 28.8486 12.3192 29 12.3192ZM26.3566 5.08474C26.3566 5.08474 26.3566 5.08549 26.3559 5.08614L26.3566 5.08474ZM31.642 5.08268L31.6427 5.08408C31.6427 5.08333 31.6428 5.08333 31.642 5.08268Z" fill="#ABD7A0"/>
<path d="M29 12.3192C29.1513 12.3192 29.3012 12.3616 29.436 12.445L33.1948 14.7909L32.2233 10.3253C32.1893 10.1692 32.1964 10.0064 32.2438 9.85417C32.2912 9.70194 32.3772 9.56594 32.4927 9.46057L35.7888 6.44415L31.428 6.03095C31.2745 6.01661 31.1277 5.95898 31.0032 5.86424C30.8787 5.7695 30.7813 5.64121 30.7213 5.49311L29 1.28493L27.2765 5.49373C27.1552 5.79358 26.8852 5.99958 26.5719 6.02951L22.2105 6.44274L25.5065 9.45916C25.7426 9.67485 25.8458 10.006 25.7759 10.3246L24.8052 14.7901L28.5639 12.445C28.6986 12.3616 28.8486 12.3192 29 12.3192Z" fill="#ABD7A0"/>
<path d="M45.5812 16C45.4059 16 45.2318 15.9429 45.0832 15.8309C44.9481 15.7288 44.8447 15.5875 44.7859 15.4246C44.7271 15.2618 44.7155 15.0844 44.7525 14.9147L45.7819 10.1833L42.291 6.9889C42.1655 6.87458 42.0749 6.72428 42.0306 6.55667C41.9863 6.38906 41.9902 6.21156 42.0418 6.04624C42.0931 5.88101 42.1897 5.73512 42.3197 5.62667C42.4497 5.51821 42.6074 5.45195 42.7731 5.43611L47.3919 4.99852L49.218 0.539205C49.3526 0.211573 49.6592 0 50 0C50.3407 0 50.6473 0.211573 50.782 0.538455L52.608 4.99852L57.2261 5.43604C57.5662 5.468 57.8528 5.70814 57.9581 6.04621C58.0635 6.38431 57.9661 6.75512 57.7095 6.98886L54.2187 10.1827L55.248 14.914C55.3235 15.2618 55.194 15.6216 54.9174 15.8302C54.6414 16.0389 54.2734 16.0549 53.9827 15.8726L50 13.3891L46.0172 15.874C45.8826 15.9575 45.7325 16 45.5812 16ZM50 12.3192C50.1513 12.3192 50.3012 12.3616 50.436 12.445L54.1948 14.7909L53.2233 10.3253C53.1893 10.1692 53.1964 10.0064 53.2438 9.85417C53.2912 9.70194 53.3772 9.56594 53.4927 9.46057L56.7888 6.44415L52.428 6.03095C52.2745 6.01661 52.1277 5.95898 52.0032 5.86424C51.8787 5.7695 51.7813 5.64121 51.7213 5.49311L50 1.28493L48.2765 5.49373C48.1552 5.79358 47.8852 5.99958 47.5719 6.02951L43.2105 6.44274L46.5065 9.45916C46.7426 9.67485 46.8458 10.006 46.7759 10.3246L45.8052 14.7901L49.5639 12.445C49.6986 12.3616 49.8486 12.3192 50 12.3192ZM47.3566 5.08474C47.3566 5.08474 47.3566 5.08549 47.3559 5.08614L47.3566 5.08474ZM52.642 5.08268L52.6427 5.08408C52.6427 5.08333 52.6428 5.08333 52.642 5.08268Z" fill="#ABD7A0"/>
<path d="M50 12.3192C50.1513 12.3192 50.3012 12.3616 50.436 12.445L54.1948 14.7909L53.2233 10.3253C53.1893 10.1692 53.1964 10.0064 53.2438 9.85417C53.2912 9.70194 53.3772 9.56594 53.4927 9.46057L56.7888 6.44415L52.428 6.03095C52.2745 6.01661 52.1277 5.95898 52.0032 5.86424C51.8787 5.7695 51.7813 5.64121 51.7213 5.49311L50 1.28493L48.2765 5.49373C48.1552 5.79358 47.8852 5.99958 47.5719 6.02951L43.2105 6.44274L46.5065 9.45916C46.7426 9.67485 46.8458 10.006 46.7759 10.3246L45.8052 14.7901L49.5639 12.445C49.6986 12.3616 49.8486 12.3192 50 12.3192Z" fill="#ABD7A0"/>
<path d="M66.5812 16C66.4059 16 66.2318 15.9429 66.0832 15.8309C65.9481 15.7288 65.8447 15.5875 65.7859 15.4246C65.7271 15.2618 65.7155 15.0844 65.7525 14.9147L66.7819 10.1833L63.291 6.9889C63.1655 6.87458 63.0749 6.72428 63.0306 6.55667C62.9863 6.38906 62.9902 6.21156 63.0418 6.04624C63.0931 5.88101 63.1897 5.73512 63.3197 5.62667C63.4497 5.51821 63.6074 5.45195 63.7731 5.43611L68.3919 4.99852L70.218 0.539205C70.3526 0.211573 70.6592 0 71 0C71.3407 0 71.6473 0.211573 71.782 0.538455L73.608 4.99852L78.2261 5.43604C78.5662 5.468 78.8528 5.70814 78.9581 6.04621C79.0635 6.38431 78.9661 6.75512 78.7095 6.98886L75.2187 10.1827L76.248 14.914C76.3235 15.2618 76.194 15.6216 75.9174 15.8302C75.6414 16.0389 75.2734 16.0549 74.9827 15.8726L71 13.3891L67.0172 15.874C66.8826 15.9575 66.7325 16 66.5812 16ZM71 12.3192C71.1513 12.3192 71.3012 12.3616 71.436 12.445L75.1948 14.7909L74.2233 10.3253C74.1893 10.1692 74.1964 10.0064 74.2438 9.85417C74.2912 9.70194 74.3772 9.56594 74.4927 9.46057L77.7888 6.44415L73.428 6.03095C73.2745 6.01661 73.1277 5.95898 73.0032 5.86424C72.8787 5.7695 72.7813 5.64121 72.7213 5.49311L71 1.28493L69.2765 5.49373C69.1552 5.79358 68.8852 5.99958 68.5719 6.02951L64.2105 6.44274L67.5065 9.45916C67.7426 9.67485 67.8458 10.006 67.7759 10.3246L66.8052 14.7901L70.5639 12.445C70.6986 12.3616 70.8486 12.3192 71 12.3192ZM68.3566 5.08474C68.3566 5.08474 68.3566 5.08549 68.3559 5.08614L68.3566 5.08474ZM73.642 5.08268L73.6427 5.08408C73.6427 5.08333 73.6428 5.08333 73.642 5.08268Z" fill="#ABD7A0"/>
<path d="M71 12.3192C71.1513 12.3192 71.3012 12.3616 71.436 12.445L75.1948 14.7909L74.2233 10.3253C74.1893 10.1692 74.1964 10.0064 74.2438 9.85417C74.2912 9.70194 74.3772 9.56594 74.4927 9.46057L77.7888 6.44415L73.428 6.03095C73.2745 6.01661 73.1277 5.95898 73.0032 5.86424C72.8787 5.7695 72.7813 5.64121 72.7213 5.49311L71 1.28493L69.2765 5.49373C69.1552 5.79358 68.8852 5.99958 68.5719 6.02951L64.2105 6.44274L67.5065 9.45916C67.7426 9.67485 67.8458 10.006 67.7759 10.3246L66.8052 14.7901L70.5639 12.445C70.6986 12.3616 70.8486 12.3192 71 12.3192Z" fill="#ABD7A0"/>
<path d="M87.5812 16C87.4059 16 87.2318 15.9429 87.0832 15.8309C86.9481 15.7288 86.8447 15.5875 86.7859 15.4246C86.7271 15.2618 86.7155 15.0844 86.7525 14.9147L87.7819 10.1833L84.291 6.9889C84.1655 6.87458 84.0749 6.72428 84.0306 6.55667C83.9863 6.38906 83.9902 6.21156 84.0418 6.04624C84.0931 5.88101 84.1897 5.73512 84.3197 5.62667C84.4497 5.51821 84.6074 5.45195 84.7731 5.43611L89.3919 4.99852L91.218 0.539205C91.3526 0.211573 91.6592 0 92 0C92.3407 0 92.6473 0.211573 92.782 0.538455L94.608 4.99852L99.2261 5.43604C99.5662 5.468 99.8528 5.70814 99.9581 6.04621C100.064 6.38431 99.9661 6.75512 99.7095 6.98886L96.2187 10.1827L97.248 14.914C97.3235 15.2618 97.194 15.6216 96.9174 15.8302C96.6414 16.0389 96.2734 16.0549 95.9827 15.8726L92 13.3891L88.0172 15.874C87.8826 15.9575 87.7325 16 87.5812 16ZM92 12.3192C92.1513 12.3192 92.3012 12.3616 92.436 12.445L96.1948 14.7909L95.2233 10.3253C95.1893 10.1692 95.1964 10.0064 95.2438 9.85417C95.2912 9.70194 95.3772 9.56594 95.4927 9.46057L98.7888 6.44415L94.428 6.03095C94.2745 6.01661 94.1277 5.95898 94.0032 5.86424C93.8787 5.7695 93.7813 5.64121 93.7213 5.49311L92 1.28493L90.2765 5.49373C90.1552 5.79358 89.8852 5.99958 89.5719 6.02951L85.2105 6.44274L88.5065 9.45916C88.7426 9.67485 88.8458 10.006 88.7759 10.3246L87.8052 14.7901L91.5639 12.445C91.6986 12.3616 91.8486 12.3192 92 12.3192Z" fill="#ABD7A0"/>
</svg>
